<?xml version="1.0" encoding="utf-8"?>
<!-- Generator: Adobe Illustrator 16.0.0, SVG Export Plug-In . SVG Version: 6.00 Build 0)  -->
<svg version="1.2" baseProfile="tiny" id="Layer_1" xmlns="http://www.w3.org/2000/svg" xmlns:xlink="http://www.w3.org/1999/xlink"
	 x="0px" y="0px" width="300px" height="70px" viewBox="0 0 300 70" xml:space="preserve">
<g>
	<path fill="none" d="M166.175,60.634c-1.341,0-2.378,1.129-2.497,2.63h4.928C168.513,61.896,167.729,60.634,166.175,60.634z"/>
	<path fill="none" d="M155.189,63.557v0.027c0,1.634,1.221,2.936,2.789,2.936c1.607,0,2.763-1.315,2.763-2.91v-0.025
		c0-1.635-1.221-2.937-2.789-2.937C156.345,60.647,155.189,61.962,155.189,63.557z"/>
	<path fill="none" d="M136.79,60.634c-1.342,0-2.378,1.129-2.498,2.63h4.929C139.128,61.896,138.344,60.634,136.79,60.634z"/>
	<path fill="none" d="M195.839,64.938v0.026c0,0.984,0.931,1.556,1.967,1.556c1.382,0,2.564-0.851,2.564-2.087v-0.771
		c-0.572-0.146-1.328-0.305-2.299-0.305C196.637,63.357,195.839,63.995,195.839,64.938z"/>
	<path fill="none" d="M71.603,63.557v0.027c0,1.634,1.223,2.936,2.791,2.936c1.607,0,2.763-1.315,2.763-2.91v-0.025
		c0-1.635-1.223-2.937-2.791-2.937C72.759,60.647,71.603,61.962,71.603,63.557z"/>
	<path fill="none" d="M221.545,60.647c-1.607,0-2.764,1.314-2.764,2.909v0.027c0,1.634,1.223,2.936,2.79,2.936
		c1.607,0,2.764-1.315,2.764-2.91v-0.025C224.335,61.949,223.112,60.647,221.545,60.647z"/>
	<path fill="none" d="M215.58,63.662c-0.571-0.146-1.328-0.305-2.298-0.305c-1.436,0-2.232,0.638-2.232,1.58v0.026
		c0,0.984,0.93,1.556,1.966,1.556c1.382,0,2.564-0.851,2.564-2.087V63.662z"/>
	<path fill="none" d="M28.309,60.634c-1.341,0-2.378,1.129-2.498,2.63h4.929C30.647,61.896,29.863,60.634,28.309,60.634z"/>
	<path fill="none" d="M116.903,60.634c-1.342,0-2.377,1.129-2.498,2.63h4.929C119.24,61.896,118.457,60.634,116.903,60.634z"/>
	<path fill="none" d="M111.097,63.57c0-1.741-1.354-2.909-2.763-2.909c-1.474,0-2.657,1.075-2.657,2.896v0.027
		c0,1.779,1.236,2.922,2.657,2.922c1.409,0,2.763-1.183,2.763-2.91V63.57z"/>
	<path fill="none" d="M45.034,63.557v0.027c0,1.634,1.222,2.936,2.79,2.936c1.608,0,2.763-1.315,2.763-2.91v-0.025
		c0-1.635-1.222-2.937-2.79-2.937C46.19,60.647,45.034,61.962,45.034,63.557z"/>
	<path fill="none" d="M99.452,7.779h-3.816v15.484h3.097c2.953,0,4.753-1.296,4.753-5.33v-4.969
		C103.486,9.363,102.261,7.779,99.452,7.779z"/>
	<path fill="none" d="M184.075,7.779h-4.465v36.01h4.465c2.521,0,4.033-1.296,4.033-4.897V12.676
		C188.108,9.075,186.596,7.779,184.075,7.779z"/>
	<path fill="none" d="M95.156,63.662c-0.571-0.146-1.328-0.305-2.298-0.305c-1.435,0-2.232,0.638-2.232,1.58v0.026
		c0,0.984,0.93,1.556,1.965,1.556c1.382,0,2.564-0.851,2.564-2.087V63.662z"/>
	<path fill="none" d="M3.494,66.52c1.608,0,2.763-1.315,2.763-2.91v-0.025c0-1.635-1.222-2.937-2.79-2.937
		c-1.607,0-2.763,1.314-2.763,2.909v0.027C0.704,65.218,1.926,66.52,3.494,66.52z"/>
	<path fill="none" d="M174.133,66.506c1.407,0,2.764-1.183,2.764-2.91V63.57c0-1.741-1.356-2.909-2.764-2.909
		c-1.475,0-2.656,1.075-2.656,2.896v0.027C171.477,65.363,172.711,66.506,174.133,66.506z"/>
	<path fill="none" d="M65.97,66.506c1.475,0,2.658-1.076,2.658-2.896v-0.025c0-1.782-1.236-2.923-2.658-2.923
		c-1.408,0-2.763,1.182-2.763,2.909v0.025C63.207,65.337,64.562,66.506,65.97,66.506z"/>
	<path fill="none" d="M263.539,28.114c-0.939-0.805-1.149-1.72-0.815-2.859c0.445-1.519,0.558-3.071,0.233-4.624
		c-0.86-4.113-3.634-6.585-7.237-8.324c-0.153-0.074-0.352-0.058-0.522-0.083c-0.062,0.125-0.115,0.193-0.129,0.27
		c-0.046,0.269-0.07,0.542-0.118,0.811c-0.399,2.228-1.646,3.852-3.63,4.875c-1.812,0.936-3.569,1.055-5.396-0.206
		c-1.594-1.099-3.021-0.796-4.335,0.56c-0.853,0.879-2.095,0.987-2.948,0.255c-0.89-0.765-1.107-2.035-0.246-2.911
		c0.84-0.856,1.855-1.635,2.938-2.129c0.825-0.376,0.941-0.789,0.743-1.481c-0.102-0.356-0.307-0.692-0.507-1.011
		c-0.565-0.897-0.425-1.958,0.367-2.575c0.796-0.621,1.923-0.548,2.551,0.311c0.488,0.668,1.086,1.474,1.101,2.228
		c0.034,1.78,0.911,2.602,2.461,3.152c0.655,0.233,1.207,0.331,1.642-0.126c0.466-0.491,0.922-1.1,1.094-1.736
		c0.288-1.067-0.104-2.101-0.621-3.06c-2.171-4.014-6.986-5.022-9.895-4.548c-2.598,0.423-3.843,2.004-3.846,4.681
		c-0.003,3.664,0.031,7.329-0.025,10.991c-0.014,0.884,0.299,1.126,1.099,1.144c1.947,0.042,3.83,0.516,5.452,1.556
		c1.085,0.697,1.824,0.676,2.951,0.067c1.244-0.673,2.736-0.879,4.106-1.331c1.5-0.496,3.054-0.926,4.101-2.242
		c0.89-1.119,2.059-1.416,3.068-0.736c0.993,0.667,1.18,1.924,0.385,3.124c-0.387,0.584-0.91,1.079-1.41,1.659
		c0.261,0.233,0.585,0.45,0.815,0.741c0.623,0.788,1.307,1.552,1.776,2.427c0.544,1.015,0.042,2.214-0.951,2.718
		c-0.97,0.49-2.201,0.214-2.707-0.795c-1.346-2.684-4.577-2.968-6.851-2.065c-1.55,0.616-2.37,1.776-2.562,3.406
		c-0.037,0.326-0.024,0.656-0.063,0.982c-0.126,1.043-1.047,1.833-2.096,1.812c-1.108-0.022-2.043-0.86-2.018-1.951
		c0.021-0.947,0.111-1.913,0.341-2.827c0.149-0.597-0.021-0.851-0.471-1.114c-1.324-0.775-2.752-1.18-4.276-1.289
		c-0.502-0.036-0.674,0.145-0.672,0.648c0.017,3.254-0.004,6.508,0.031,9.761c0.003,0.277,0.262,0.709,0.502,0.797
		c0.994,0.363,2.008,0.76,3.046,0.896c4.028,0.53,7.406-1.933,8.629-6.189c0.602-2.097,2.312-2.556,3.881-1.031
		c1.237,1.201,2.736,1.864,4.404,2.206c0.474,0.096,0.798-0.023,1.15-0.377c0.535-0.538,1.132-1.035,1.768-1.446
		c1.043-0.67,2.371-0.381,2.977,0.565c0.657,1.028,0.359,2.244-0.732,2.988c-1.545,1.054-1.751,1.591-1.289,3.36
		c0.297,1.141-0.253,2.244-1.29,2.586c-1.145,0.379-2.229-0.104-2.668-1.253c-0.212-0.555-0.279-1.164-0.46-1.733
		c-0.069-0.22-0.23-0.51-0.419-0.578c-1.4-0.507-2.819-0.966-4.288-1.458c-3.356,6.053-8.609,7.666-15.233,5.937v0.994
		c0,2.625,0.036,5.251-0.022,7.874c-0.02,0.859,0.252,1.086,1.085,1.145c2.999,0.207,5.353,1.617,7.021,4.107
		c0.884,1.319,0.081,3.046-1.47,3.247c-0.9,0.118-1.571-0.307-2.096-1.023c-0.896-1.225-2.08-1.98-3.607-2.182
		c-0.639-0.085-0.97,0.031-0.927,0.79c0.06,1.063,0.015,2.133,0.016,3.199c0,2.008,1.027,3.457,2.938,4.16
		c1.484,0.546,2.985,0.532,4.522,0.24c3.785-0.719,6.609-5.248,5.445-8.567c-0.474-1.347-1.221-2.609-1.94-3.853
		c-0.99-1.709-2.532-2.373-4.499-2.201c-1.271,0.111-2.218-0.717-2.328-1.896c-0.106-1.142,0.746-2.134,2.005-2.254
		c1.803-0.173,3.556,0.051,5.165,0.925c0.452,0.244,0.746,0.165,1.105-0.104c0.953-0.717,1.545-1.667,1.938-2.778
		c0.406-1.152,1.444-1.662,2.629-1.346c0.981,0.263,1.683,1.382,1.345,2.465c-0.312,1.002-0.755,2.001-1.336,2.871
		c-0.579,0.869-1.399,1.579-2.172,2.423c1.334,2.053,2.349,4.324,2.563,6.929c0.177-0.051,0.286-0.061,0.374-0.11
		c3.401-1.89,5.613-7.16,4.596-10.939c-0.377-1.397,0.087-2.369,1.409-2.892c1.202-0.474,2.192-1.219,2.962-2.251
		c1.816-2.43,2.481-5.193,2.303-8.182C265.35,30.69,264.812,29.204,263.539,28.114z"/>
	<path fill="none" d="M128.044,44.364c2.52,0,4.105-1.368,4.105-4.97V12.172c0-3.601-1.585-4.97-4.105-4.97
		c-2.521,0-4.105,1.369-4.105,4.97v27.223C123.939,42.996,125.523,44.364,128.044,44.364z"/>
	<path fill="#FFFFFF" d="M266.922,18.928c-0.909-3.661-3.183-6.35-6.119-8.554c-1.883-1.413-3.915-2.482-6.34-2.626
		c-0.249-0.014-0.52-0.33-0.71-0.562c-0.794-0.967-1.467-2.053-2.356-2.917c-2.601-2.524-5.857-3.53-9.396-3.68
		c-6.046-0.256-9.944,3.603-9.844,9.536c0.138,8.171,0.035,16.346,0.035,24.52c0,8.393,0.017,16.784-0.009,25.176
		c-0.01,3.238,1.46,5.603,4.149,7.237c4.177,2.54,12.136,2.25,15.827-4.292c0.395-0.696,0.862-1.112,1.66-1.386
		c5.85-2.016,9.859-8.297,9.398-14.654c-0.037-0.521,0.117-0.771,0.508-1.067c0.759-0.574,1.519-1.172,2.169-1.862
		c2.14-2.272,3.173-5.073,3.632-8.098c0.535-3.531,0.101-6.86-2.192-9.78c-0.206-0.264-0.218-0.762-0.171-1.132
		C267.413,22.815,267.402,20.865,266.922,18.928z M263.145,40.511c-0.77,1.032-1.76,1.777-2.962,2.251
		c-1.322,0.522-1.786,1.494-1.409,2.892c1.018,3.779-1.194,9.05-4.596,10.939c-0.088,0.05-0.197,0.06-0.374,0.11
		c-0.215-2.604-1.229-4.876-2.563-6.929c0.772-0.844,1.593-1.554,2.172-2.423c0.581-0.87,1.023-1.869,1.336-2.871
		c0.338-1.083-0.363-2.202-1.345-2.465c-1.185-0.316-2.223,0.193-2.629,1.346c-0.394,1.111-0.985,2.062-1.938,2.778
		c-0.359,0.27-0.653,0.349-1.105,0.104c-1.609-0.874-3.362-1.098-5.165-0.925c-1.259,0.12-2.111,1.112-2.005,2.254
		c0.11,1.18,1.058,2.008,2.328,1.896c1.967-0.172,3.509,0.492,4.499,2.201c0.72,1.243,1.467,2.506,1.94,3.853
		c1.164,3.319-1.66,7.849-5.445,8.567c-1.537,0.292-3.038,0.306-4.522-0.24c-1.91-0.703-2.938-2.152-2.938-4.16
		c-0.001-1.066,0.044-2.136-0.016-3.199c-0.043-0.759,0.288-0.875,0.927-0.79c1.527,0.201,2.711,0.957,3.607,2.182
		c0.524,0.717,1.195,1.142,2.096,1.023c1.551-0.201,2.354-1.928,1.47-3.247c-1.669-2.49-4.022-3.9-7.021-4.107
		c-0.833-0.059-1.104-0.285-1.085-1.145c0.059-2.623,0.022-5.249,0.022-7.874v-0.994c6.624,1.729,11.877,0.116,15.233-5.937
		c1.469,0.492,2.888,0.951,4.288,1.458c0.188,0.068,0.35,0.358,0.419,0.578c0.181,0.569,0.248,1.179,0.46,1.733
		c0.439,1.148,1.523,1.632,2.668,1.253c1.037-0.342,1.587-1.445,1.29-2.586c-0.462-1.77-0.256-2.306,1.289-3.36
		c1.092-0.744,1.39-1.96,0.732-2.988c-0.605-0.947-1.934-1.236-2.977-0.565c-0.636,0.411-1.232,0.908-1.768,1.446
		c-0.353,0.354-0.677,0.473-1.15,0.377c-1.668-0.342-3.167-1.005-4.404-2.206c-1.568-1.525-3.279-1.066-3.881,1.031
		c-1.223,4.256-4.601,6.719-8.629,6.189c-1.038-0.137-2.052-0.533-3.046-0.896c-0.24-0.088-0.499-0.52-0.502-0.797
		c-0.035-3.253-0.015-6.506-0.031-9.761c-0.002-0.503,0.17-0.684,0.672-0.648c1.524,0.109,2.952,0.514,4.276,1.289
		c0.449,0.263,0.62,0.518,0.471,1.114c-0.229,0.915-0.319,1.88-0.341,2.827c-0.025,1.091,0.909,1.929,2.018,1.951
		c1.049,0.021,1.97-0.769,2.096-1.812c0.039-0.326,0.026-0.657,0.063-0.982c0.192-1.63,1.013-2.791,2.562-3.406
		c2.273-0.902,5.505-0.618,6.851,2.065c0.506,1.009,1.737,1.285,2.707,0.795c0.993-0.504,1.495-1.704,0.951-2.718
		c-0.47-0.875-1.153-1.639-1.776-2.427c-0.23-0.292-0.555-0.508-0.815-0.741c0.5-0.581,1.023-1.075,1.41-1.659
		c0.795-1.2,0.608-2.458-0.385-3.124c-1.01-0.68-2.179-0.383-3.068,0.736c-1.047,1.316-2.601,1.746-4.101,2.242
		c-1.37,0.452-2.862,0.657-4.106,1.331c-1.127,0.609-1.866,0.63-2.951-0.067c-1.622-1.041-3.505-1.514-5.452-1.556
		c-0.8-0.018-1.112-0.259-1.099-1.144c0.057-3.662,0.022-7.327,0.025-10.991c0.003-2.676,1.248-4.258,3.846-4.681
		c2.908-0.474,7.724,0.534,9.895,4.548c0.518,0.958,0.909,1.993,0.621,3.06c-0.172,0.636-0.628,1.246-1.094,1.736
		c-0.435,0.458-0.986,0.359-1.642,0.126c-1.55-0.551-2.427-1.372-2.461-3.152c-0.015-0.753-0.612-1.559-1.101-2.228
		c-0.628-0.859-1.755-0.932-2.551-0.311c-0.792,0.617-0.933,1.678-0.367,2.575c0.2,0.319,0.405,0.655,0.507,1.011
		c0.198,0.692,0.082,1.105-0.743,1.481c-1.083,0.495-2.099,1.273-2.938,2.129c-0.861,0.876-0.644,2.146,0.246,2.911
		c0.854,0.732,2.096,0.624,2.948-0.255c1.314-1.355,2.741-1.659,4.335-0.56c1.827,1.261,3.585,1.141,5.396,0.206
		c1.984-1.024,3.23-2.648,3.63-4.875c0.048-0.269,0.072-0.542,0.118-0.811c0.014-0.076,0.067-0.145,0.129-0.27
		c0.171,0.025,0.369,0.009,0.522,0.083c3.604,1.738,6.377,4.21,7.237,8.324c0.324,1.553,0.212,3.105-0.233,4.624
		c-0.334,1.139-0.124,2.054,0.815,2.859c1.273,1.09,1.811,2.576,1.908,4.215C265.626,35.317,264.961,38.081,263.145,40.511z"/>
	<path fill="#FFFFFF" d="M286.236,10.432c-0.953-0.799-2.372-0.673-3.172,0.279c-0.352,0.416-0.526,0.93-0.526,1.442
		c0,0.645,0.271,1.282,0.798,1.721c6.145,5.164,9.668,12.693,9.668,20.67c0,7.968-3.523,15.503-9.66,20.667
		c-0.534,0.438-0.806,1.075-0.806,1.721c0,0.512,0.175,1.025,0.526,1.443c0.8,0.951,2.219,1.076,3.172,0.278
		c7.156-6.021,11.264-14.81,11.264-24.11C297.5,25.242,293.393,16.452,286.236,10.432z"/>
	<path fill="#FFFFFF" d="M271.778,41.426c-0.526,0.447-0.799,1.086-0.799,1.729c0,0.514,0.169,1.025,0.528,1.443
		c0.799,0.953,2.219,1.077,3.164,0.277c3.069-2.577,4.825-6.34,4.825-10.332s-1.756-7.757-4.825-10.335
		c-0.945-0.799-2.365-0.673-3.164,0.277c-0.359,0.418-0.528,0.93-0.528,1.445c0,0.645,0.272,1.28,0.799,1.728
		c2.051,1.714,3.223,4.227,3.223,6.886C275.001,37.202,273.829,39.712,271.778,41.426z"/>
	<path fill="#FFFFFF" d="M280.457,17.324c-0.952-0.799-2.372-0.681-3.17,0.272c-0.354,0.423-0.526,0.938-0.526,1.449
		c0,0.637,0.269,1.275,0.796,1.721c4.095,3.443,6.446,8.459,6.446,13.778c0,5.317-2.352,10.332-6.446,13.775
		c-0.527,0.447-0.796,1.083-0.796,1.721c0,0.515,0.167,1.025,0.526,1.45c0.798,0.954,2.218,1.078,3.17,0.271
		c5.114-4.3,8.042-10.576,8.042-17.217C288.499,27.9,285.571,21.623,280.457,17.324z"/>
	<polygon fill="#FFFFFF" points="8.852,14.476 18.719,50.99 26.857,50.99 26.857,0.577 19.799,0.577 19.799,30.752 11.661,0.577 
		1.722,0.577 1.722,50.99 8.852,50.99 	"/>
	<polygon fill="#FFFFFF" points="54.152,43.789 40.468,43.789 40.468,29.024 51.343,29.024 51.343,21.822 40.468,21.822 
		40.468,7.779 54.152,7.779 54.152,0.577 32.546,0.577 32.546,50.99 54.152,50.99 	"/>
	<path fill="#FFFFFF" d="M82.312,38.962V0.577h-7.49v38.891c0,3.601-1.585,4.896-4.105,4.896c-2.521,0-4.105-1.296-4.105-4.896
		V0.577h-7.922v38.385c0,8.068,4.033,12.677,11.811,12.677C78.278,51.639,82.312,47.03,82.312,38.962z"/>
	<path fill="#FFFFFF" d="M111.48,44.869v-7.778c0-5.258-1.296-9.074-5.258-10.731c3.529-1.656,5.186-5.041,5.186-10.226v-3.961
		c0-7.779-3.529-11.595-11.739-11.595H87.713V50.99h7.922V30.464h2.736c3.602,0,5.185,1.729,5.185,6.411v7.922
		c0,4.104,0.289,4.898,0.721,6.193h8.066C111.552,49.118,111.48,47.317,111.48,44.869z M103.486,17.933
		c0,4.033-1.801,5.33-4.753,5.33h-3.097V7.779h3.816c2.809,0,4.034,1.584,4.034,5.185V17.933z"/>
	<path fill="#FFFFFF" d="M116.016,12.676v26.216c0,8.065,4.25,12.675,12.028,12.675c7.777,0,12.026-4.609,12.026-12.675V12.676
		C140.071,4.609,135.822,0,128.044,0C120.266,0,116.016,4.609,116.016,12.676z M123.939,12.172c0-3.601,1.584-4.97,4.105-4.97
		c2.52,0,4.105,1.369,4.105,4.97v27.223c0,3.602-1.585,4.97-4.105,4.97c-2.521,0-4.105-1.368-4.105-4.97V12.172z"/>
	<polygon fill="#FFFFFF" points="145.185,50.99 166.79,50.99 166.79,43.789 153.107,43.789 153.107,29.024 163.982,29.024 
		163.982,21.822 153.107,21.822 153.107,7.779 166.79,7.779 166.79,0.577 145.185,0.577 	"/>
	<path fill="#FFFFFF" d="M184.22,0.577h-12.531V50.99h12.531c7.922,0,11.812-4.393,11.812-12.459V13.036
		C196.031,4.97,192.142,0.577,184.22,0.577z M188.108,38.892c0,3.602-1.513,4.897-4.033,4.897h-4.465V7.779h4.465
		c2.521,0,4.033,1.296,4.033,4.897V38.892z"/>
	<path fill="#FFFFFF" d="M200.712,0.577v38.385c0,8.068,4.032,12.677,11.812,12.677c7.778,0,11.812-4.608,11.812-12.677V0.577h-7.49
		v38.891c0,3.601-1.585,4.896-4.105,4.896c-2.52,0-4.104-1.296-4.104-4.896V0.577H200.712z"/>
	<path fill="#FFFFFF" d="M3.467,67.13c2.02,0,3.494-1.647,3.494-3.546v-0.027c0-1.9-1.461-3.521-3.467-3.521
		C1.475,60.036,0,61.684,0,63.584v0.025C0,65.509,1.461,67.13,3.467,67.13z M0.704,63.557c0-1.595,1.156-2.909,2.763-2.909
		c1.568,0,2.79,1.302,2.79,2.937v0.025c0,1.595-1.155,2.91-2.763,2.91c-1.568,0-2.79-1.302-2.79-2.936V63.557z"/>
	<path fill="#FFFFFF" d="M23.195,66.971v-4.105c0-1.7-0.997-2.829-2.604-2.829c-1.275,0-2.006,0.704-2.444,1.46
		c-0.373-0.782-1.103-1.46-2.286-1.46c-1.208,0-1.82,0.664-2.258,1.369v-1.21h-0.651v6.775h0.651v-3.906
		c0-1.368,0.957-2.431,2.165-2.431c1.209,0,1.98,0.862,1.98,2.272v4.064h0.65v-3.946c0-1.515,0.997-2.391,2.139-2.391
		c1.249,0,2.006,0.85,2.006,2.312v4.025H23.195z"/>
	<path fill="#FFFFFF" d="M31.444,63.584c0-2.008-1.209-3.548-3.108-3.548c-1.833,0-3.215,1.567-3.215,3.534v0.025
		c0,2.112,1.541,3.534,3.321,3.534c1.302,0,2.113-0.532,2.803-1.275l-0.451-0.399c-0.558,0.598-1.275,1.064-2.325,1.064
		c-1.329,0-2.538-0.984-2.657-2.671h5.619C31.444,63.741,31.444,63.703,31.444,63.584z M25.812,63.264
		c0.119-1.501,1.156-2.63,2.498-2.63c1.554,0,2.338,1.262,2.431,2.63H25.812z"/>
	<rect x="33.437" y="57.272" fill="#FFFFFF" width="0.651" height="9.698"/>
	<path fill="#FFFFFF" d="M42.458,66.971v-4.145c0-1.621-0.997-2.79-2.711-2.79c-1.235,0-1.992,0.625-2.443,1.421v-4.185h-0.652
		v9.698h0.652v-3.919c0-1.409,1.023-2.418,2.351-2.418c1.368,0,2.152,0.917,2.152,2.312v4.025H42.458z"/>
	<path fill="#FFFFFF" d="M44.33,63.584v0.025c0,1.899,1.461,3.521,3.467,3.521c2.02,0,3.494-1.647,3.494-3.546v-0.027
		c0-1.9-1.461-3.521-3.467-3.521C45.805,60.036,44.33,61.684,44.33,63.584z M50.587,63.584v0.025c0,1.595-1.155,2.91-2.763,2.91
		c-1.568,0-2.79-1.302-2.79-2.936v-0.027c0-1.595,1.156-2.909,2.763-2.909C49.365,60.647,50.587,61.949,50.587,63.584z"/>
	<path fill="#FFFFFF" d="M53.949,64.194c0-2.205,1.367-3.388,2.935-3.388h0.067v-0.718c-1.342-0.053-2.471,0.823-3.002,2.032v-1.926
		h-0.651v6.775h0.651V64.194z"/>
	<path fill="#FFFFFF" d="M66.037,67.13c1.635,0,3.295-1.342,3.295-3.546v-0.027c0-2.206-1.66-3.521-3.295-3.521
		c-1.342,0-2.205,0.784-2.79,1.674v-1.515h-0.651v8.901h0.651v-3.588C63.805,66.359,64.682,67.13,66.037,67.13z M63.207,63.596
		V63.57c0-1.728,1.355-2.909,2.763-2.909c1.421,0,2.658,1.141,2.658,2.923v0.025c0,1.82-1.183,2.896-2.658,2.896
		C64.562,66.506,63.207,65.337,63.207,63.596z"/>
	<path fill="#FFFFFF" d="M70.899,63.584v0.025c0,1.899,1.461,3.521,3.467,3.521c2.02,0,3.495-1.647,3.495-3.546v-0.027
		c0-1.9-1.461-3.521-3.467-3.521C72.374,60.036,70.899,61.684,70.899,63.584z M77.156,63.584v0.025c0,1.595-1.156,2.91-2.763,2.91
		c-1.568,0-2.791-1.302-2.791-2.936v-0.027c0-1.595,1.156-2.909,2.763-2.909C75.934,60.647,77.156,61.949,77.156,63.584z"/>
	<path fill="#FFFFFF" d="M79.866,60.195v6.775h0.651v-2.776c0-2.205,1.368-3.388,2.936-3.388h0.066v-0.718
		c-1.342-0.053-2.471,0.823-3.002,2.032v-1.926H79.866z"/>
	<path fill="#FFFFFF" d="M88.567,60.793v-0.598h-2.378v-2.166h-0.651v2.166h-0.983v0.598h0.983v4.437c0,1.29,0.851,1.861,1.9,1.861
		c0.425,0,0.757-0.08,1.103-0.239V66.24c-0.385,0.173-0.665,0.239-0.997,0.239c-0.784,0-1.355-0.347-1.355-1.316v-4.37H88.567z"/>
	<path fill="#FFFFFF" d="M95.781,66.971v-4.225c0-0.837-0.239-1.462-0.691-1.913c-0.491-0.492-1.222-0.744-2.139-0.744
		c-0.93,0-1.66,0.238-2.405,0.584l0.239,0.571c0.625-0.318,1.303-0.544,2.126-0.544c1.395,0,2.232,0.705,2.232,2.072v0.292
		c-0.651-0.172-1.302-0.292-2.246-0.292c-1.753,0-2.963,0.798-2.963,2.205v0.026c0,1.409,1.356,2.126,2.618,2.126
		c1.288,0,2.125-0.637,2.59-1.289v1.13H95.781z M92.592,66.52c-1.035,0-1.965-0.571-1.965-1.556v-0.026
		c0-0.942,0.797-1.58,2.232-1.58c0.97,0,1.727,0.159,2.298,0.305v0.771C95.156,65.669,93.974,66.52,92.592,66.52z"/>
	<rect x="98.212" y="57.272" fill="#FFFFFF" width="0.65" height="9.698"/>
	<path fill="#FFFFFF" d="M111.709,66.971v-9.698h-0.651v4.384c-0.558-0.85-1.434-1.62-2.79-1.62c-1.634,0-3.295,1.342-3.295,3.548
		v0.025c0,2.206,1.661,3.521,3.295,3.521c1.342,0,2.205-0.783,2.79-1.675v1.516H111.709z M108.334,66.506
		c-1.42,0-2.657-1.143-2.657-2.922v-0.027c0-1.82,1.183-2.896,2.657-2.896c1.409,0,2.763,1.168,2.763,2.909v0.025
		C111.097,65.323,109.743,66.506,108.334,66.506z"/>
	<path fill="#FFFFFF" d="M120.038,63.584c0-2.008-1.209-3.548-3.108-3.548c-1.833,0-3.215,1.567-3.215,3.534v0.025
		c0,2.112,1.541,3.534,3.321,3.534c1.303,0,2.112-0.532,2.803-1.275l-0.452-0.399c-0.558,0.598-1.275,1.064-2.325,1.064
		c-1.329,0-2.537-0.984-2.657-2.671h5.619C120.038,63.741,120.038,63.703,120.038,63.584z M114.405,63.264
		c0.12-1.501,1.156-2.63,2.498-2.63c1.554,0,2.337,1.262,2.431,2.63H114.405z"/>
	<path fill="#FFFFFF" d="M125.922,60.195v6.775h0.652v-3.919c0-1.409,1.023-2.418,2.351-2.418c1.369,0,2.152,0.917,2.152,2.312
		v4.025h0.651v-4.145c0-1.621-0.996-2.79-2.711-2.79c-1.234,0-1.992,0.625-2.443,1.421v-1.262H125.922z"/>
	<path fill="#FFFFFF" d="M139.924,63.584c0-2.008-1.208-3.548-3.108-3.548c-1.833,0-3.215,1.567-3.215,3.534v0.025
		c0,2.112,1.541,3.534,3.32,3.534c1.302,0,2.112-0.532,2.803-1.275l-0.451-0.399c-0.558,0.598-1.275,1.064-2.325,1.064
		c-1.328,0-2.538-0.984-2.657-2.671h5.62C139.924,63.741,139.924,63.703,139.924,63.584z M134.292,63.264
		c0.12-1.501,1.156-2.63,2.498-2.63c1.555,0,2.338,1.262,2.431,2.63H134.292z"/>
	<path fill="#FFFFFF" d="M141.691,60.195v4.145c0,1.622,0.996,2.79,2.71,2.79c1.236,0,1.993-0.624,2.445-1.422v1.263h0.651v-6.775
		h-0.651v3.919c0,1.408-1.023,2.418-2.352,2.418c-1.368,0-2.152-0.917-2.152-2.312v-4.025H141.691z"/>
	<path fill="#FFFFFF" d="M149.967,60.195v6.775h0.652v-2.776c0-2.205,1.368-3.388,2.936-3.388h0.066v-0.718
		c-1.342-0.053-2.471,0.823-3.002,2.032v-1.926H149.967z"/>
	<path fill="#FFFFFF" d="M154.484,63.584v0.025c0,1.899,1.462,3.521,3.468,3.521c2.02,0,3.494-1.647,3.494-3.546v-0.027
		c0-1.9-1.461-3.521-3.468-3.521C155.959,60.036,154.484,61.684,154.484,63.584z M160.741,63.584v0.025
		c0,1.595-1.155,2.91-2.763,2.91c-1.568,0-2.789-1.302-2.789-2.936v-0.027c0-1.595,1.155-2.909,2.763-2.909
		C159.521,60.647,160.741,61.949,160.741,63.584z"/>
	<path fill="#FFFFFF" d="M169.311,63.584c0-2.008-1.209-3.548-3.109-3.548c-1.833,0-3.215,1.567-3.215,3.534v0.025
		c0,2.112,1.542,3.534,3.321,3.534c1.302,0,2.112-0.532,2.803-1.275l-0.452-0.399c-0.557,0.598-1.274,1.064-2.323,1.064
		c-1.329,0-2.538-0.984-2.657-2.671h5.619C169.311,63.741,169.311,63.703,169.311,63.584z M163.678,63.264
		c0.119-1.501,1.156-2.63,2.497-2.63c1.555,0,2.338,1.262,2.431,2.63H163.678z"/>
	<path fill="#FFFFFF" d="M170.771,63.609c0,2.206,1.661,3.521,3.296,3.521c1.341,0,2.204-0.783,2.789-1.675v1.516h0.65v-9.698h-0.65
		v4.384c-0.559-0.85-1.435-1.62-2.789-1.62c-1.635,0-3.296,1.342-3.296,3.548V63.609z M171.477,63.557
		c0-1.82,1.182-2.896,2.656-2.896c1.407,0,2.764,1.168,2.764,2.909v0.025c0,1.728-1.356,2.91-2.764,2.91
		c-1.422,0-2.656-1.143-2.656-2.922V63.557z"/>
	<path fill="#FFFFFF" d="M185.65,66.971v-6.775H185v3.919c0,1.408-1.023,2.418-2.353,2.418c-1.368,0-2.151-0.917-2.151-2.312v-4.025
		h-0.651v4.145c0,1.622,0.996,2.79,2.71,2.79c1.236,0,1.993-0.624,2.445-1.422v1.263H185.65z"/>
	<path fill="#FFFFFF" d="M191.097,60.647c1.01,0,1.674,0.518,2.259,1.115l0.465-0.479c-0.638-0.664-1.435-1.248-2.71-1.248
		c-1.939,0-3.454,1.647-3.454,3.548v0.025c0,1.899,1.501,3.521,3.454,3.521c1.249,0,2.072-0.559,2.763-1.342l-0.451-0.398
		c-0.571,0.638-1.315,1.13-2.272,1.13c-1.554,0-2.789-1.302-2.789-2.936v-0.027C188.36,61.937,189.557,60.647,191.097,60.647z"/>
	<path fill="#FFFFFF" d="M198.164,60.089c-0.93,0-1.66,0.238-2.405,0.584l0.24,0.571c0.624-0.318,1.302-0.544,2.125-0.544
		c1.396,0,2.232,0.705,2.232,2.072v0.292c-0.65-0.172-1.303-0.292-2.245-0.292c-1.755,0-2.962,0.798-2.962,2.205v0.026
		c0,1.409,1.354,2.126,2.616,2.126c1.288,0,2.126-0.637,2.591-1.289v1.13h0.637v-4.225c0-0.837-0.238-1.462-0.689-1.913
		C199.812,60.341,199.081,60.089,198.164,60.089z M200.37,64.433c0,1.236-1.183,2.087-2.564,2.087c-1.036,0-1.967-0.571-1.967-1.556
		v-0.026c0-0.942,0.798-1.58,2.232-1.58c0.971,0,1.727,0.159,2.299,0.305V64.433z"/>
	<path fill="#FFFFFF" d="M205.59,68.937l0.891-1.807c1.154-0.053,1.939-0.598,2.604-1.342l-0.452-0.398
		c-0.57,0.638-1.314,1.13-2.271,1.13c-1.556,0-2.79-1.302-2.79-2.936v-0.027c0-1.62,1.195-2.909,2.735-2.909
		c1.011,0,1.675,0.517,2.259,1.115l0.466-0.479c-0.639-0.664-1.436-1.248-2.711-1.248c-1.939,0-3.454,1.647-3.454,3.548v0.025
		c0,1.754,1.275,3.268,3.003,3.494l-1.01,1.487L205.59,68.937z"/>
	<path fill="#FFFFFF" d="M212.684,58.521c0.452,0,1.196,0.545,1.7,0.545c0.532,0,0.863-0.279,1.116-1.235l-0.451-0.12
		c-0.199,0.504-0.346,0.664-0.665,0.664c-0.451,0-1.195-0.544-1.7-0.544c-0.531,0-0.863,0.278-1.115,1.235l0.452,0.118
		C212.219,58.681,212.365,58.521,212.684,58.521z"/>
	<path fill="#FFFFFF" d="M216.205,66.971v-4.225c0-0.837-0.239-1.462-0.691-1.913c-0.492-0.492-1.223-0.744-2.138-0.744
		c-0.932,0-1.661,0.238-2.405,0.584l0.239,0.572c0.623-0.319,1.301-0.545,2.125-0.545c1.395,0,2.231,0.705,2.231,2.072v0.292
		c-0.65-0.172-1.301-0.292-2.245-0.292c-1.753,0-2.962,0.798-2.962,2.205v0.026c0,1.409,1.355,2.126,2.617,2.126
		c1.289,0,2.125-0.637,2.59-1.289v1.13H216.205z M213.016,66.52c-1.036,0-1.966-0.571-1.966-1.556v-0.026
		c0-0.942,0.797-1.58,2.232-1.58c0.97,0,1.727,0.159,2.298,0.305v0.771C215.58,65.669,214.397,66.52,213.016,66.52z"/>
	<path fill="#FFFFFF" d="M221.571,60.036c-2.019,0-3.493,1.647-3.493,3.548v0.025c0,1.899,1.46,3.521,3.467,3.521
		c2.02,0,3.494-1.647,3.494-3.546v-0.027C225.039,61.656,223.577,60.036,221.571,60.036z M224.335,63.609
		c0,1.595-1.156,2.91-2.764,2.91c-1.567,0-2.79-1.302-2.79-2.936v-0.027c0-1.595,1.156-2.909,2.764-2.909
		c1.567,0,2.79,1.302,2.79,2.937V63.609z"/>
</g>
<g>
</g>
<g>
</g>
<g>
</g>
<g>
</g>
<g>
</g>
<g>
</g>
</svg>
