
<svg version="1.2" baseProfile="tiny" id="Layer_1" xmlns="http://www.w3.org/2000/svg" xmlnsXlink="http://www.w3.org/1999/xlink"
	 x="0px" y="0px" width="35.665px" height="35.665px" viewBox="0 0 35.665 35.665" xmlSpace="preserve">
<g>
	<path fill="none" d="M22.352,7.148C20.321,5.118,17.622,4,14.75,4S9.179,5.118,7.149,7.148c-4.191,4.191-4.191,11.011,0,15.203
		c2.03,2.03,4.73,3.147,7.602,3.147s5.571-1.117,7.601-3.147s3.148-4.73,3.148-7.602C25.5,11.878,24.382,9.179,22.352,7.148z"/>
	<path fill="#b6b6b6" d="M22.352,22.352c-2.03,2.03-4.729,3.147-7.601,3.147s-5.571-1.117-7.602-3.147c-4.191-4.192-4.191-11.012,0-15.203
		C9.179,5.118,11.879,4,14.75,4s5.571,1.118,7.601,3.148c2.03,2.031,3.148,4.73,3.148,7.602
		C25.5,17.621,24.382,20.321,22.352,22.352c0.781-0.781,2.047-0.781,2.828,0l1.308,1.308c1.945-2.553,3.013-5.646,3.013-8.909
		c0-3.94-1.534-7.644-4.32-10.43C22.395,1.534,18.69,0,14.75,0S7.106,1.534,4.321,4.32c-5.751,5.75-5.751,15.108,0,20.859
		c2.786,2.786,6.49,4.319,10.43,4.319c3.264,0,6.357-1.066,8.909-3.012l-1.308-1.308C21.57,24.398,21.57,23.133,22.352,22.352z"/>
	<path fill="#b6b6b6" d="M26.487,23.659l-1.308-1.308c-0.781-0.781-2.047-0.781-2.828,0s-0.781,2.047,0,2.828l1.308,1.308l8.592,8.592
		c0.391,0.391,0.902,0.586,1.414,0.586s1.023-0.195,1.414-0.586c0.781-0.781,0.781-2.047,0-2.828L26.487,23.659z"/>
</g>
</svg>
