<?xml version="1.0" encoding="utf-8"?>
<!-- Generator: Adobe Illustrator 16.0.0, SVG Export Plug-In . SVG Version: 6.00 Build 0)  -->
<svg version="1.2" baseProfile="tiny" id="Layer_1" xmlns="http://www.w3.org/2000/svg" xmlns:xlink="http://www.w3.org/1999/xlink"
	 x="0px" y="0px" width="10.66px" height="15.146px" viewBox="0 0 10.66 15.146" xml:space="preserve">
<g>
	<path fill="none" d="M5.33,3C4.045,3,3,4.045,3,5.33c0,0.738,1.066,2.734,2.33,4.665C6.595,8.064,7.66,6.068,7.66,5.33
		C7.66,4.045,6.615,3,5.33,3z"/>
	<path fill="#FFFFFF" d="M5.335,0h-0.01C2.389,0.003,0,2.393,0,5.33c0,2.421,3.157,6.878,4.124,8.186l1.206,1.631l1.206-1.631
		c0.968-1.308,4.124-5.765,4.124-8.186C10.66,2.393,8.272,0.003,5.335,0z M5.33,9.995C4.066,8.064,3,6.068,3,5.33
		C3,4.045,4.045,3,5.33,3c1.285,0,2.33,1.045,2.33,2.33C7.66,6.068,6.595,8.064,5.33,9.995z"/>
</g>
</svg>
